<svg width="33" height="33" viewBox="0 0 33 33" fill="none" xmlns="http://www.w3.org/2000/svg">
<ellipse cx="16.5" cy="16.5" rx="16" ry="16.5" fill="#0C99FF"/>
<path d="M20.9149 23.9349C21.144 23.9361 21.371 23.8964 21.5827 23.8183C21.7945 23.7401 21.9867 23.625 22.1482 23.4796L24.4853 21.3884C24.6459 21.2438 24.7361 21.0482 24.7361 20.8444C24.7361 20.6405 24.6459 20.4449 24.4853 20.3004L21.0357 17.2137C20.8741 17.07 20.6555 16.9893 20.4277 16.9893C20.1998 16.9893 19.9813 17.07 19.8197 17.2137L18.4398 18.4406C17.4845 18.2127 16.5997 17.7931 15.8526 17.2137C15.2067 16.5441 14.738 15.7528 14.4814 14.8987L15.8526 13.664C16.0132 13.5195 16.1034 13.3239 16.1034 13.12C16.1034 12.9162 16.0132 12.7206 15.8526 12.576L12.403 9.48935C12.2414 9.34562 12.0228 9.26495 11.795 9.26495C11.5671 9.26495 11.3485 9.34562 11.187 9.48935L8.85846 11.5883C8.69601 11.7328 8.56735 11.9048 8.47999 12.0942C8.39263 12.2837 8.34832 12.4868 8.34964 12.6917C8.42788 15.6567 9.75198 18.4864 12.058 20.6167C14.4389 22.6801 17.6013 23.8649 20.9149 23.9349ZM11.7993 11.133L14.0329 13.1316L12.9204 14.127C12.815 14.2154 12.7361 14.3259 12.6909 14.4486C12.6457 14.5713 12.6357 14.7022 12.6617 14.8293C12.984 16.1182 13.6665 17.313 14.6452 18.3017C15.7494 19.1786 17.085 19.7894 18.5261 20.0766C18.6659 20.1027 18.8109 20.0974 18.9478 20.061C19.0848 20.0247 19.2096 19.9584 19.3108 19.8682L20.4234 18.8496L22.657 20.8482L20.9322 22.3916C18.0722 22.3257 15.3433 21.3044 13.2826 19.5287C11.293 17.684 10.1483 15.2391 10.0745 12.6763L11.7993 11.133ZM23.873 15.4466H25.5978C25.6202 14.5291 25.4347 13.617 25.0525 12.7654C24.6704 11.9137 24.0995 11.1401 23.3743 10.4912C22.649 9.84226 21.7844 9.33144 20.8326 8.9895C19.8808 8.64757 18.8615 8.48161 17.8361 8.50162V10.0449C18.6364 10.0202 19.4337 10.143 20.1787 10.4056C20.9236 10.6683 21.6002 11.0653 22.1664 11.5719C22.7326 12.0786 23.1763 12.684 23.4699 13.3505C23.7635 14.0171 23.9007 14.7306 23.873 15.4466Z" fill="white"/>
<path d="M17.8359 13.1317C19.647 13.1317 20.4232 13.8262 20.4232 15.4467H22.148C22.148 12.9619 20.6129 11.5884 17.8359 11.5884V13.1317Z" fill="white"/>
</svg>
