<svg width="33" height="32" viewBox="0 0 33 32" fill="none" xmlns="http://www.w3.org/2000/svg">
<circle cx="16.5" cy="16" r="16" fill="#0C99FF"/>
<path d="M24.2143 10H8.78571C8.44472 10 8.1177 10.137 7.87658 10.3808C7.63546 10.6246 7.5 10.9552 7.5 11.3V21.7C7.5 22.0448 7.63546 22.3754 7.87658 22.6192C8.1177 22.863 8.44472 23 8.78571 23H24.2143C24.5553 23 24.8823 22.863 25.1234 22.6192C25.3645 22.3754 25.5 22.0448 25.5 21.7V11.3C25.5 10.9552 25.3645 10.6246 25.1234 10.3808C24.8823 10.137 24.5553 10 24.2143 10ZM22.8 11.3L16.5 15.707L10.2 11.3H22.8ZM8.78571 21.7V11.8915L16.1336 17.033C16.2412 17.1085 16.369 17.1489 16.5 17.1489C16.631 17.1489 16.7588 17.1085 16.8664 17.033L24.2143 11.8915V21.7H8.78571Z" fill="white"/>
</svg>
